G75*
%MOIN*%
%OFA0B0*%
%FSLAX25Y25*%
%IPPOS*%
%LPD*%
%AMOC8*
5,1,8,0,0,1.08239X$1,22.5*
%
%ADD10C,0.00800*%
%ADD11C,0.00600*%
%ADD12R,0.06299X0.05118*%
%ADD13R,0.05118X0.06299*%
%ADD14R,0.05512X0.04724*%
%ADD15C,0.06400*%
%ADD16OC8,0.07400*%
%ADD17C,0.06600*%
%ADD18C,0.05600*%
%ADD19C,0.02400*%
%ADD20C,0.01600*%
%ADD21C,0.01000*%
D10*
X0124529Y0033461D02*
X0125563Y0033461D01*
X0127632Y0031392D01*
X0127632Y0029324D02*
X0127632Y0033461D01*
X0129940Y0032427D02*
X0129940Y0029324D01*
X0133043Y0029324D01*
X0134077Y0030358D01*
X0133043Y0031392D01*
X0129940Y0031392D01*
X0129940Y0032427D02*
X0130975Y0033461D01*
X0133043Y0033461D01*
X0136386Y0033461D02*
X0140523Y0029324D01*
X0136386Y0029324D01*
X0135769Y0025029D02*
X0135769Y0018824D01*
X0137837Y0018824D02*
X0133700Y0018824D01*
X0131392Y0018824D02*
X0131392Y0019858D01*
X0127255Y0023995D01*
X0127255Y0025029D01*
X0131392Y0025029D01*
X0135769Y0025029D02*
X0137837Y0022961D01*
X0140146Y0023995D02*
X0140146Y0019858D01*
X0141180Y0018824D01*
X0143248Y0018824D01*
X0144283Y0019858D01*
X0140146Y0023995D01*
X0141180Y0025029D01*
X0143248Y0025029D01*
X0144283Y0023995D01*
X0144283Y0019858D01*
X0146591Y0018824D02*
X0150728Y0018824D01*
X0146591Y0022961D01*
X0146591Y0023995D01*
X0147625Y0025029D01*
X0149694Y0025029D01*
X0150728Y0023995D01*
X0149277Y0029324D02*
X0149277Y0032427D01*
X0150311Y0033461D01*
X0152379Y0033461D01*
X0153414Y0032427D01*
X0153414Y0035529D02*
X0153414Y0029324D01*
X0146968Y0030358D02*
X0145934Y0029324D01*
X0142831Y0029324D01*
X0142831Y0032427D01*
X0143866Y0033461D01*
X0145934Y0033461D01*
X0145934Y0031392D02*
X0142831Y0031392D01*
X0140523Y0033461D02*
X0136386Y0033461D01*
X0145934Y0031392D02*
X0146968Y0030358D01*
D11*
X0041880Y0019556D02*
X0041046Y0020390D01*
X0038544Y0020390D01*
X0038544Y0021224D02*
X0038544Y0018722D01*
X0041046Y0018722D01*
X0041880Y0019556D01*
X0041046Y0022058D02*
X0039378Y0022058D01*
X0038544Y0021224D01*
X0036724Y0021224D02*
X0036724Y0019556D01*
X0035890Y0018722D01*
X0033388Y0018722D01*
X0033388Y0023726D01*
X0033388Y0022058D02*
X0035890Y0022058D01*
X0036724Y0021224D01*
X0031568Y0019556D02*
X0030734Y0020390D01*
X0028231Y0020390D01*
X0028231Y0021224D02*
X0028231Y0018722D01*
X0030734Y0018722D01*
X0031568Y0019556D01*
X0030734Y0022058D02*
X0029065Y0022058D01*
X0028231Y0021224D01*
X0026411Y0022058D02*
X0023909Y0022058D01*
X0023075Y0021224D01*
X0023075Y0019556D01*
X0023909Y0018722D01*
X0026411Y0018722D01*
X0026411Y0017054D02*
X0026411Y0022058D01*
X0026942Y0027122D02*
X0028610Y0028790D01*
X0026942Y0027956D02*
X0027776Y0027122D01*
X0029444Y0027122D01*
X0030278Y0027956D01*
X0030278Y0031292D01*
X0029444Y0032126D01*
X0027776Y0032126D01*
X0026942Y0031292D01*
X0026942Y0027956D01*
X0025122Y0027122D02*
X0025122Y0032126D01*
X0021786Y0032126D01*
X0019966Y0032126D02*
X0017464Y0032126D01*
X0016629Y0031292D01*
X0016629Y0029624D01*
X0017464Y0028790D01*
X0019966Y0028790D01*
X0019966Y0027122D02*
X0019966Y0032126D01*
X0023454Y0029624D02*
X0025122Y0029624D01*
X0020421Y0022892D02*
X0020421Y0019556D01*
X0019587Y0018722D01*
X0017817Y0019556D02*
X0017817Y0021224D01*
X0016983Y0022058D01*
X0015315Y0022058D01*
X0014481Y0021224D01*
X0014481Y0020390D01*
X0017817Y0020390D01*
X0017817Y0019556D02*
X0016983Y0018722D01*
X0015315Y0018722D01*
X0012661Y0018722D02*
X0012661Y0022058D01*
X0012661Y0020390D02*
X0010993Y0022058D01*
X0010159Y0022058D01*
X0019587Y0022058D02*
X0021255Y0022058D01*
X0032099Y0032126D02*
X0035435Y0032126D01*
X0033767Y0032126D02*
X0033767Y0027122D01*
D12*
X0068237Y0050737D03*
X0068237Y0058611D03*
X0068237Y0070737D03*
X0068237Y0078611D03*
X0078237Y0068414D03*
X0078237Y0060934D03*
X0093237Y0033414D03*
X0093237Y0025934D03*
X0070737Y0175934D03*
X0070737Y0183414D03*
X0060737Y0183611D03*
X0060737Y0175737D03*
D13*
X0079300Y0089674D03*
X0087174Y0089674D03*
X0145422Y0189674D03*
X0152902Y0189674D03*
D14*
X0148237Y0198769D03*
X0148237Y0210580D03*
X0078237Y0035580D03*
X0078237Y0023769D03*
D15*
X0060737Y0191474D02*
X0060737Y0197874D01*
X0050737Y0197874D02*
X0050737Y0191474D01*
X0040737Y0191474D02*
X0040737Y0197874D01*
X0030737Y0197874D02*
X0030737Y0191474D01*
X0020737Y0191474D02*
X0020737Y0197874D01*
D16*
X0095737Y0199674D03*
X0095737Y0189674D03*
X0105737Y0189674D03*
X0105737Y0199674D03*
X0115737Y0199674D03*
X0115737Y0189674D03*
X0125737Y0189674D03*
X0125737Y0199674D03*
X0135737Y0199674D03*
X0135737Y0189674D03*
D17*
X0025737Y0074174D03*
X0025737Y0055174D03*
D18*
X0050437Y0059674D02*
X0056037Y0059674D01*
X0056037Y0049674D02*
X0050437Y0049674D01*
X0050437Y0039674D02*
X0056037Y0039674D01*
X0056037Y0029674D02*
X0050437Y0029674D01*
X0050437Y0019674D02*
X0056037Y0019674D01*
X0056037Y0069674D02*
X0050437Y0069674D01*
X0050437Y0079674D02*
X0056037Y0079674D01*
X0056037Y0089674D02*
X0050437Y0089674D01*
X0050437Y0099674D02*
X0056037Y0099674D01*
X0056037Y0109674D02*
X0050437Y0109674D01*
X0050437Y0119674D02*
X0056037Y0119674D01*
X0056037Y0129674D02*
X0050437Y0129674D01*
X0050437Y0139674D02*
X0056037Y0139674D01*
X0056037Y0149674D02*
X0050437Y0149674D01*
X0110437Y0149674D02*
X0116037Y0149674D01*
X0116037Y0139674D02*
X0110437Y0139674D01*
X0110437Y0129674D02*
X0116037Y0129674D01*
X0116037Y0119674D02*
X0110437Y0119674D01*
X0110437Y0109674D02*
X0116037Y0109674D01*
X0116037Y0099674D02*
X0110437Y0099674D01*
X0110437Y0089674D02*
X0116037Y0089674D01*
X0116037Y0079674D02*
X0110437Y0079674D01*
X0110437Y0069674D02*
X0116037Y0069674D01*
X0116037Y0059674D02*
X0110437Y0059674D01*
X0110437Y0049674D02*
X0116037Y0049674D01*
X0116037Y0039674D02*
X0110437Y0039674D01*
X0110437Y0029674D02*
X0116037Y0029674D01*
X0116037Y0019674D02*
X0110437Y0019674D01*
D19*
X0108237Y0039674D02*
X0103237Y0044674D01*
X0103237Y0059674D01*
X0093237Y0064674D02*
X0098237Y0069674D01*
X0120737Y0069674D01*
X0125737Y0074674D01*
X0125737Y0107174D01*
X0118237Y0114674D01*
X0093237Y0114674D02*
X0063237Y0144674D01*
X0053237Y0139674D02*
X0038737Y0139674D01*
X0034637Y0143774D01*
X0034637Y0158574D01*
X0050737Y0174674D01*
X0050737Y0194674D01*
X0055737Y0204674D02*
X0050737Y0209674D01*
X0065737Y0209674D01*
X0070737Y0204674D01*
X0070737Y0183414D01*
X0070737Y0175934D02*
X0076997Y0175934D01*
X0080737Y0179674D01*
X0080737Y0189674D01*
X0085737Y0194674D01*
X0090737Y0194674D01*
X0095737Y0189674D02*
X0095737Y0184674D01*
X0100737Y0179674D01*
X0115737Y0179674D01*
X0135737Y0159674D01*
X0135737Y0074674D01*
X0125737Y0064674D01*
X0130737Y0059674D02*
X0113237Y0059674D01*
X0113237Y0049674D02*
X0135737Y0049674D01*
X0155737Y0069674D01*
X0155737Y0169674D01*
X0145737Y0179674D01*
X0140737Y0179674D01*
X0135737Y0184674D01*
X0135737Y0189674D01*
X0125737Y0189674D02*
X0125737Y0184674D01*
X0145737Y0164674D01*
X0145737Y0074674D01*
X0130737Y0059674D01*
X0093237Y0064674D02*
X0093237Y0033414D01*
X0091072Y0023769D02*
X0078237Y0023769D01*
X0068237Y0058611D02*
X0067174Y0059674D01*
X0053237Y0059674D01*
X0030237Y0059674D01*
X0025737Y0055174D01*
X0030237Y0069674D02*
X0025737Y0074174D01*
X0030237Y0069674D02*
X0053237Y0069674D01*
X0067174Y0069674D01*
X0070560Y0060934D02*
X0078237Y0060934D01*
X0079300Y0089674D02*
X0053237Y0089674D01*
X0050737Y0089674D02*
X0020737Y0119674D01*
X0020737Y0194674D01*
X0020737Y0204674D01*
X0025737Y0209674D01*
X0050737Y0209674D01*
X0040737Y0194674D02*
X0040737Y0174674D01*
X0040737Y0174595D01*
X0029359Y0163217D01*
X0029359Y0136052D01*
X0035737Y0129674D01*
X0053237Y0129674D01*
X0045737Y0144674D02*
X0040737Y0149674D01*
X0040737Y0154674D01*
X0055737Y0169674D01*
X0060737Y0175737D02*
X0060737Y0159674D01*
X0053237Y0152174D01*
X0053237Y0149674D01*
X0065737Y0209674D02*
X0090737Y0209674D01*
X0095737Y0204674D01*
X0095737Y0199674D01*
X0110737Y0194674D02*
X0115737Y0189674D01*
D20*
X0009163Y0017213D02*
X0010893Y0014830D01*
X0013276Y0013100D01*
X0016076Y0012190D01*
X0017548Y0012074D01*
X0148847Y0012074D01*
X0150319Y0012190D01*
X0153120Y0013100D01*
X0155502Y0014830D01*
X0157233Y0017213D01*
X0158142Y0020013D01*
X0158258Y0021485D01*
X0158258Y0067104D01*
X0157776Y0066622D01*
X0137776Y0046622D01*
X0136453Y0046074D01*
X0119791Y0046074D01*
X0118983Y0045266D01*
X0117554Y0044674D01*
X0118983Y0044082D01*
X0120445Y0042620D01*
X0121237Y0040708D01*
X0121237Y0038640D01*
X0120445Y0036728D01*
X0118983Y0035266D01*
X0117554Y0034674D01*
X0118983Y0034082D01*
X0120445Y0032620D01*
X0121237Y0030708D01*
X0121237Y0028640D01*
X0120445Y0026728D01*
X0118983Y0025266D01*
X0117554Y0024674D01*
X0118983Y0024082D01*
X0120445Y0022620D01*
X0121237Y0020708D01*
X0121237Y0018640D01*
X0120445Y0016728D01*
X0118983Y0015266D01*
X0117071Y0014474D01*
X0109403Y0014474D01*
X0107491Y0015266D01*
X0106029Y0016728D01*
X0105237Y0018640D01*
X0105237Y0020708D01*
X0106029Y0022620D01*
X0107491Y0024082D01*
X0108920Y0024674D01*
X0107491Y0025266D01*
X0106029Y0026728D01*
X0105237Y0028640D01*
X0105237Y0030708D01*
X0106029Y0032620D01*
X0107491Y0034082D01*
X0108920Y0034674D01*
X0107491Y0035266D01*
X0106029Y0036728D01*
X0105984Y0036836D01*
X0100185Y0042635D01*
X0099637Y0043958D01*
X0099637Y0060390D01*
X0100185Y0061713D01*
X0101198Y0062726D01*
X0102163Y0063126D01*
X0105112Y0066074D01*
X0099728Y0066074D01*
X0096837Y0063183D01*
X0096837Y0038373D01*
X0096864Y0038373D01*
X0097746Y0038008D01*
X0098421Y0037333D01*
X0098787Y0036451D01*
X0098787Y0030378D01*
X0098495Y0029674D01*
X0098787Y0028970D01*
X0098787Y0022897D01*
X0098421Y0022015D01*
X0097746Y0021340D01*
X0096864Y0020975D01*
X0093369Y0020975D01*
X0093111Y0020717D01*
X0091788Y0020169D01*
X0083078Y0020169D01*
X0083028Y0020047D01*
X0082352Y0019372D01*
X0081470Y0019006D01*
X0075004Y0019006D01*
X0074122Y0019372D01*
X0073446Y0020047D01*
X0073081Y0020929D01*
X0073081Y0026608D01*
X0073446Y0027490D01*
X0074122Y0028165D01*
X0075004Y0028531D01*
X0081470Y0028531D01*
X0082352Y0028165D01*
X0083028Y0027490D01*
X0083078Y0027368D01*
X0087687Y0027368D01*
X0087687Y0028970D01*
X0087979Y0029674D01*
X0087687Y0030378D01*
X0087687Y0036451D01*
X0088053Y0037333D01*
X0088728Y0038008D01*
X0089610Y0038373D01*
X0089637Y0038373D01*
X0089637Y0065390D01*
X0090185Y0066713D01*
X0095185Y0071713D01*
X0095185Y0071713D01*
X0096198Y0072726D01*
X0097521Y0073274D01*
X0106683Y0073274D01*
X0107491Y0074082D01*
X0108920Y0074674D01*
X0107491Y0075266D01*
X0106029Y0076728D01*
X0105237Y0078640D01*
X0105237Y0080708D01*
X0106029Y0082620D01*
X0107491Y0084082D01*
X0109403Y0084874D01*
X0117071Y0084874D01*
X0118983Y0084082D01*
X0120445Y0082620D01*
X0121237Y0080708D01*
X0121237Y0078640D01*
X0120445Y0076728D01*
X0118983Y0075266D01*
X0117554Y0074674D01*
X0118983Y0074082D01*
X0119518Y0073547D01*
X0122137Y0076165D01*
X0122137Y0105683D01*
X0120635Y0107185D01*
X0120445Y0106728D01*
X0118983Y0105266D01*
X0117554Y0104674D01*
X0118983Y0104082D01*
X0120445Y0102620D01*
X0121237Y0100708D01*
X0121237Y0098640D01*
X0120445Y0096728D01*
X0118983Y0095266D01*
X0117071Y0094474D01*
X0109403Y0094474D01*
X0107491Y0095266D01*
X0106029Y0096728D01*
X0105237Y0098640D01*
X0105237Y0100708D01*
X0106029Y0102620D01*
X0107491Y0104082D01*
X0108920Y0104674D01*
X0107491Y0105266D01*
X0106029Y0106728D01*
X0105237Y0108640D01*
X0105237Y0110708D01*
X0105554Y0111474D01*
X0094919Y0111474D01*
X0093953Y0111074D01*
X0092521Y0111074D01*
X0091198Y0111622D01*
X0061346Y0141474D01*
X0060920Y0141474D01*
X0061237Y0140708D01*
X0061237Y0138640D01*
X0060445Y0136728D01*
X0058983Y0135266D01*
X0057554Y0134674D01*
X0058983Y0134082D01*
X0060445Y0132620D01*
X0061237Y0130708D01*
X0061237Y0128640D01*
X0060445Y0126728D01*
X0058983Y0125266D01*
X0057554Y0124674D01*
X0058983Y0124082D01*
X0060445Y0122620D01*
X0061237Y0120708D01*
X0061237Y0118640D01*
X0060445Y0116728D01*
X0058983Y0115266D01*
X0057554Y0114674D01*
X0058983Y0114082D01*
X0060445Y0112620D01*
X0061237Y0110708D01*
X0061237Y0108640D01*
X0060445Y0106728D01*
X0058983Y0105266D01*
X0057554Y0104674D01*
X0058983Y0104082D01*
X0060445Y0102620D01*
X0061237Y0100708D01*
X0061237Y0098640D01*
X0060445Y0096728D01*
X0058983Y0095266D01*
X0057554Y0094674D01*
X0058983Y0094082D01*
X0059791Y0093274D01*
X0074341Y0093274D01*
X0074341Y0093301D01*
X0074706Y0094183D01*
X0075381Y0094858D01*
X0076264Y0095224D01*
X0082336Y0095224D01*
X0083219Y0094858D01*
X0083702Y0094375D01*
X0083920Y0094501D01*
X0084378Y0094624D01*
X0086694Y0094624D01*
X0086694Y0090154D01*
X0087654Y0090154D01*
X0087654Y0094624D01*
X0089970Y0094624D01*
X0090428Y0094501D01*
X0090838Y0094264D01*
X0091173Y0093929D01*
X0091410Y0093518D01*
X0091533Y0093061D01*
X0091533Y0090154D01*
X0087654Y0090154D01*
X0087654Y0089194D01*
X0091533Y0089194D01*
X0091533Y0086287D01*
X0091410Y0085830D01*
X0091173Y0085419D01*
X0090838Y0085084D01*
X0090428Y0084847D01*
X0089970Y0084724D01*
X0087654Y0084724D01*
X0087654Y0089194D01*
X0086694Y0089194D01*
X0086694Y0084724D01*
X0084378Y0084724D01*
X0083920Y0084847D01*
X0083702Y0084973D01*
X0083219Y0084490D01*
X0082336Y0084124D01*
X0076264Y0084124D01*
X0075381Y0084490D01*
X0074706Y0085165D01*
X0074341Y0086047D01*
X0074341Y0086074D01*
X0059791Y0086074D01*
X0058983Y0085266D01*
X0057071Y0084474D01*
X0049403Y0084474D01*
X0047491Y0085266D01*
X0046029Y0086728D01*
X0045237Y0088640D01*
X0045237Y0090083D01*
X0017685Y0117635D01*
X0017137Y0118958D01*
X0017137Y0187154D01*
X0015990Y0188302D01*
X0015137Y0190360D01*
X0015137Y0198988D01*
X0015990Y0201046D01*
X0017137Y0202194D01*
X0017137Y0205390D01*
X0017685Y0206713D01*
X0022685Y0211713D01*
X0023698Y0212726D01*
X0025021Y0213274D01*
X0091453Y0213274D01*
X0092776Y0212726D01*
X0097776Y0207726D01*
X0098789Y0206713D01*
X0099337Y0205390D01*
X0099337Y0204701D01*
X0101161Y0202876D01*
X0103459Y0205174D01*
X0105537Y0205174D01*
X0105537Y0199874D01*
X0105937Y0199874D01*
X0105937Y0205174D01*
X0108015Y0205174D01*
X0110737Y0202452D01*
X0113459Y0205174D01*
X0115537Y0205174D01*
X0115537Y0199874D01*
X0115537Y0199474D01*
X0110237Y0199474D01*
X0105937Y0199474D01*
X0105937Y0199874D01*
X0115537Y0199874D01*
X0115937Y0199874D01*
X0125537Y0199874D01*
X0125537Y0199474D01*
X0120237Y0199474D01*
X0115937Y0199474D01*
X0115937Y0199874D01*
X0115937Y0205174D01*
X0118015Y0205174D01*
X0120737Y0202452D01*
X0123459Y0205174D01*
X0125537Y0205174D01*
X0125537Y0199874D01*
X0125937Y0199874D01*
X0125937Y0205174D01*
X0128015Y0205174D01*
X0130737Y0202452D01*
X0133459Y0205174D01*
X0135537Y0205174D01*
X0135537Y0199874D01*
X0135537Y0199474D01*
X0130237Y0199474D01*
X0125937Y0199474D01*
X0125937Y0199874D01*
X0135537Y0199874D01*
X0135937Y0199874D01*
X0135937Y0205174D01*
X0138015Y0205174D01*
X0141237Y0201952D01*
X0141237Y0199874D01*
X0135937Y0199874D01*
X0135937Y0199474D01*
X0141237Y0199474D01*
X0141237Y0197574D01*
X0141314Y0197574D01*
X0142380Y0197133D01*
X0143195Y0196317D01*
X0143808Y0195704D01*
X0143804Y0195712D01*
X0143681Y0196169D01*
X0143681Y0198387D01*
X0147856Y0198387D01*
X0147856Y0199150D01*
X0147856Y0202931D01*
X0145244Y0202931D01*
X0144786Y0202808D01*
X0144376Y0202571D01*
X0144041Y0202236D01*
X0143804Y0201825D01*
X0143681Y0201368D01*
X0143681Y0199150D01*
X0147856Y0199150D01*
X0148618Y0199150D01*
X0148618Y0202931D01*
X0151230Y0202931D01*
X0151688Y0202808D01*
X0152098Y0202571D01*
X0152433Y0202236D01*
X0152537Y0202056D01*
X0152537Y0206367D01*
X0152352Y0206183D01*
X0151470Y0205817D01*
X0145004Y0205817D01*
X0144122Y0206183D01*
X0143446Y0206858D01*
X0143081Y0207740D01*
X0143081Y0213419D01*
X0143446Y0214301D01*
X0144122Y0214976D01*
X0145004Y0215342D01*
X0151470Y0215342D01*
X0152352Y0214976D01*
X0153028Y0214301D01*
X0153244Y0213780D01*
X0154730Y0213780D01*
X0153120Y0214949D01*
X0150319Y0215859D01*
X0148847Y0215975D01*
X0017548Y0215975D01*
X0016076Y0215859D01*
X0013276Y0214949D01*
X0010893Y0213218D01*
X0009163Y0210836D01*
X0008253Y0208036D01*
X0008137Y0206564D01*
X0008137Y0023855D01*
X0008629Y0024347D01*
X0009622Y0024758D01*
X0011530Y0024758D01*
X0011827Y0024635D01*
X0012124Y0024758D01*
X0013198Y0024758D01*
X0013988Y0024431D01*
X0014778Y0024758D01*
X0017520Y0024758D01*
X0018191Y0024481D01*
X0018512Y0024802D01*
X0018436Y0024833D01*
X0017677Y0025593D01*
X0017471Y0026090D01*
X0016926Y0026090D01*
X0016504Y0026265D01*
X0015934Y0026501D01*
X0015934Y0026501D01*
X0015922Y0026513D01*
X0014341Y0028095D01*
X0014341Y0028095D01*
X0014341Y0028095D01*
X0014275Y0028253D01*
X0013929Y0029087D01*
X0013929Y0031829D01*
X0014265Y0032640D01*
X0014341Y0032822D01*
X0014341Y0032822D01*
X0015934Y0034415D01*
X0016527Y0034661D01*
X0016926Y0034826D01*
X0020503Y0034826D01*
X0020876Y0034672D01*
X0021249Y0034826D01*
X0025659Y0034826D01*
X0026449Y0034499D01*
X0026840Y0034661D01*
X0027239Y0034826D01*
X0029981Y0034826D01*
X0030772Y0034499D01*
X0031562Y0034826D01*
X0035972Y0034826D01*
X0036964Y0034415D01*
X0037724Y0033656D01*
X0038135Y0032663D01*
X0038135Y0031589D01*
X0037724Y0030597D01*
X0036964Y0029837D01*
X0036467Y0029631D01*
X0036467Y0026585D01*
X0036056Y0025593D01*
X0035689Y0025226D01*
X0035883Y0024758D01*
X0036427Y0024758D01*
X0037237Y0024423D01*
X0037419Y0024347D01*
X0037419Y0024347D01*
X0037419Y0024347D01*
X0037634Y0024132D01*
X0037849Y0024347D01*
X0038841Y0024758D01*
X0041583Y0024758D01*
X0042576Y0024347D01*
X0043335Y0023588D01*
X0043746Y0022595D01*
X0043746Y0021521D01*
X0043743Y0021512D01*
X0044169Y0021086D01*
X0044580Y0020093D01*
X0044580Y0019019D01*
X0044169Y0018027D01*
X0043410Y0017267D01*
X0042576Y0016433D01*
X0041583Y0016022D01*
X0038007Y0016022D01*
X0037217Y0016349D01*
X0036427Y0016022D01*
X0032851Y0016022D01*
X0032061Y0016349D01*
X0031271Y0016022D01*
X0028906Y0016022D01*
X0028700Y0015525D01*
X0027941Y0014765D01*
X0026948Y0014354D01*
X0025874Y0014354D01*
X0024882Y0014765D01*
X0024122Y0015525D01*
X0023916Y0016022D01*
X0023372Y0016022D01*
X0022949Y0016197D01*
X0022380Y0016433D01*
X0022380Y0016433D01*
X0022367Y0016445D01*
X0021748Y0017065D01*
X0021116Y0016433D01*
X0020124Y0016022D01*
X0019050Y0016022D01*
X0018285Y0016339D01*
X0017520Y0016022D01*
X0014778Y0016022D01*
X0013988Y0016349D01*
X0013198Y0016022D01*
X0012124Y0016022D01*
X0011131Y0016433D01*
X0010372Y0017193D01*
X0009961Y0018185D01*
X0009961Y0019272D01*
X0009874Y0019358D01*
X0009622Y0019358D01*
X0008629Y0019769D01*
X0008242Y0020157D01*
X0008253Y0020013D01*
X0009163Y0017213D01*
X0009015Y0017667D02*
X0010176Y0017667D01*
X0009994Y0016068D02*
X0012013Y0016068D01*
X0013309Y0016068D02*
X0014667Y0016068D01*
X0013979Y0012871D02*
X0152416Y0012871D01*
X0155005Y0014470D02*
X0027227Y0014470D01*
X0025595Y0014470D02*
X0011390Y0014470D01*
X0009961Y0019265D02*
X0008496Y0019265D01*
X0008343Y0024061D02*
X0008137Y0024061D01*
X0008137Y0025659D02*
X0017649Y0025659D01*
X0015178Y0027258D02*
X0008137Y0027258D01*
X0008137Y0028856D02*
X0014025Y0028856D01*
X0013929Y0030455D02*
X0008137Y0030455D01*
X0008137Y0032053D02*
X0014022Y0032053D01*
X0014341Y0032822D02*
X0014341Y0032822D01*
X0015171Y0033652D02*
X0008137Y0033652D01*
X0008137Y0035250D02*
X0047529Y0035250D01*
X0047491Y0035266D02*
X0048920Y0034674D01*
X0047491Y0034082D01*
X0046029Y0032620D01*
X0045237Y0030708D01*
X0045237Y0028640D01*
X0046029Y0026728D01*
X0047491Y0025266D01*
X0048920Y0024674D01*
X0047491Y0024082D01*
X0046029Y0022620D01*
X0045237Y0020708D01*
X0045237Y0018640D01*
X0046029Y0016728D01*
X0047491Y0015266D01*
X0049403Y0014474D01*
X0057071Y0014474D01*
X0058983Y0015266D01*
X0060445Y0016728D01*
X0061237Y0018640D01*
X0061237Y0020708D01*
X0060445Y0022620D01*
X0058983Y0024082D01*
X0057554Y0024674D01*
X0058983Y0025266D01*
X0060445Y0026728D01*
X0061237Y0028640D01*
X0061237Y0030708D01*
X0060445Y0032620D01*
X0058983Y0034082D01*
X0057554Y0034674D01*
X0058983Y0035266D01*
X0060445Y0036728D01*
X0061237Y0038640D01*
X0061237Y0040708D01*
X0060445Y0042620D01*
X0058983Y0044082D01*
X0057554Y0044674D01*
X0058983Y0045266D01*
X0060445Y0046728D01*
X0061237Y0048640D01*
X0061237Y0050708D01*
X0060445Y0052620D01*
X0058983Y0054082D01*
X0057554Y0054674D01*
X0058983Y0055266D01*
X0059791Y0056074D01*
X0062687Y0056074D01*
X0062687Y0055575D01*
X0063053Y0054692D01*
X0063536Y0054209D01*
X0063410Y0053991D01*
X0063287Y0053533D01*
X0063287Y0051217D01*
X0067757Y0051217D01*
X0067757Y0050257D01*
X0068717Y0050257D01*
X0068717Y0051217D01*
X0073187Y0051217D01*
X0073187Y0053533D01*
X0073064Y0053991D01*
X0072938Y0054209D01*
X0073421Y0054692D01*
X0073787Y0055575D01*
X0073787Y0056316D01*
X0074610Y0055975D01*
X0081864Y0055975D01*
X0082746Y0056340D01*
X0083421Y0057015D01*
X0083787Y0057897D01*
X0083787Y0063970D01*
X0083495Y0064674D01*
X0083787Y0065378D01*
X0083787Y0071451D01*
X0083421Y0072333D01*
X0082746Y0073008D01*
X0081864Y0073373D01*
X0077803Y0073373D01*
X0077727Y0073450D01*
X0076551Y0073937D01*
X0073719Y0073937D01*
X0073421Y0074656D01*
X0072938Y0075139D01*
X0073064Y0075357D01*
X0073187Y0075815D01*
X0073187Y0078131D01*
X0068717Y0078131D01*
X0068717Y0079091D01*
X0067757Y0079091D01*
X0067757Y0082970D01*
X0064850Y0082970D01*
X0064393Y0082847D01*
X0063982Y0082610D01*
X0063647Y0082275D01*
X0063410Y0081865D01*
X0063287Y0081407D01*
X0063287Y0079091D01*
X0067757Y0079091D01*
X0067757Y0078131D01*
X0063287Y0078131D01*
X0063287Y0075815D01*
X0063410Y0075357D01*
X0063536Y0075139D01*
X0063053Y0074656D01*
X0062687Y0073773D01*
X0062687Y0073274D01*
X0059791Y0073274D01*
X0058983Y0074082D01*
X0057071Y0074874D01*
X0049403Y0074874D01*
X0047491Y0074082D01*
X0046683Y0073274D01*
X0031728Y0073274D01*
X0031437Y0073565D01*
X0031437Y0075308D01*
X0030569Y0077403D01*
X0028966Y0079006D01*
X0026871Y0079874D01*
X0024603Y0079874D01*
X0022508Y0079006D01*
X0020905Y0077403D01*
X0020037Y0075308D01*
X0020037Y0073040D01*
X0020905Y0070945D01*
X0022508Y0069342D01*
X0024603Y0068474D01*
X0026346Y0068474D01*
X0028198Y0066622D01*
X0029521Y0066074D01*
X0046683Y0066074D01*
X0047491Y0065266D01*
X0048920Y0064674D01*
X0047491Y0064082D01*
X0046683Y0063274D01*
X0029521Y0063274D01*
X0028198Y0062726D01*
X0026346Y0060874D01*
X0024603Y0060874D01*
X0022508Y0060006D01*
X0020905Y0058403D01*
X0020037Y0056308D01*
X0020037Y0054040D01*
X0020905Y0051945D01*
X0022508Y0050342D01*
X0024603Y0049474D01*
X0026871Y0049474D01*
X0028966Y0050342D01*
X0030569Y0051945D01*
X0031437Y0054040D01*
X0031437Y0055783D01*
X0031728Y0056074D01*
X0046683Y0056074D01*
X0047491Y0055266D01*
X0048920Y0054674D01*
X0047491Y0054082D01*
X0046029Y0052620D01*
X0045237Y0050708D01*
X0045237Y0048640D01*
X0046029Y0046728D01*
X0047491Y0045266D01*
X0048920Y0044674D01*
X0047491Y0044082D01*
X0046029Y0042620D01*
X0045237Y0040708D01*
X0045237Y0038640D01*
X0046029Y0036728D01*
X0047491Y0035266D01*
X0047061Y0033652D02*
X0037725Y0033652D01*
X0038135Y0032053D02*
X0045794Y0032053D01*
X0045237Y0030455D02*
X0037582Y0030455D01*
X0036467Y0028856D02*
X0045237Y0028856D01*
X0045809Y0027258D02*
X0036467Y0027258D01*
X0036083Y0025659D02*
X0047098Y0025659D01*
X0047470Y0024061D02*
X0042862Y0024061D01*
X0043746Y0022462D02*
X0045963Y0022462D01*
X0045301Y0020864D02*
X0044261Y0020864D01*
X0044580Y0019265D02*
X0045237Y0019265D01*
X0045640Y0017667D02*
X0043809Y0017667D01*
X0041694Y0016068D02*
X0046689Y0016068D01*
X0037896Y0016068D02*
X0036538Y0016068D01*
X0032740Y0016068D02*
X0031382Y0016068D01*
X0023261Y0016068D02*
X0020235Y0016068D01*
X0018939Y0016068D02*
X0017631Y0016068D01*
X0008137Y0036849D02*
X0045979Y0036849D01*
X0045317Y0038447D02*
X0008137Y0038447D01*
X0008137Y0040046D02*
X0045237Y0040046D01*
X0045625Y0041644D02*
X0008137Y0041644D01*
X0008137Y0043243D02*
X0046652Y0043243D01*
X0048516Y0044841D02*
X0008137Y0044841D01*
X0008137Y0046440D02*
X0046317Y0046440D01*
X0045486Y0048038D02*
X0008137Y0048038D01*
X0008137Y0049637D02*
X0024210Y0049637D01*
X0021615Y0051235D02*
X0008137Y0051235D01*
X0008137Y0052834D02*
X0020537Y0052834D01*
X0020037Y0054432D02*
X0008137Y0054432D01*
X0008137Y0056031D02*
X0020037Y0056031D01*
X0020584Y0057629D02*
X0008137Y0057629D01*
X0008137Y0059228D02*
X0021730Y0059228D01*
X0024488Y0060826D02*
X0008137Y0060826D01*
X0008137Y0062425D02*
X0027897Y0062425D01*
X0027599Y0067220D02*
X0008137Y0067220D01*
X0008137Y0065622D02*
X0047135Y0065622D01*
X0047432Y0064023D02*
X0008137Y0064023D01*
X0008137Y0068819D02*
X0023770Y0068819D01*
X0021433Y0070417D02*
X0008137Y0070417D01*
X0008137Y0072016D02*
X0020461Y0072016D01*
X0020037Y0073614D02*
X0008137Y0073614D01*
X0008137Y0075213D02*
X0020037Y0075213D01*
X0020660Y0076811D02*
X0008137Y0076811D01*
X0008137Y0078410D02*
X0021912Y0078410D01*
X0029562Y0078410D02*
X0046011Y0078410D01*
X0045950Y0078597D02*
X0046174Y0077908D01*
X0046503Y0077263D01*
X0046928Y0076677D01*
X0047440Y0076165D01*
X0048026Y0075740D01*
X0048671Y0075411D01*
X0049360Y0075187D01*
X0050075Y0075074D01*
X0053237Y0075074D01*
X0056399Y0075074D01*
X0057114Y0075187D01*
X0057803Y0075411D01*
X0058448Y0075740D01*
X0059034Y0076165D01*
X0059546Y0076677D01*
X0059971Y0077263D01*
X0060300Y0077908D01*
X0060524Y0078597D01*
X0060637Y0079312D01*
X0060637Y0079674D01*
X0060637Y0080036D01*
X0060524Y0080751D01*
X0060300Y0081440D01*
X0059971Y0082085D01*
X0059546Y0082671D01*
X0059034Y0083183D01*
X0058448Y0083608D01*
X0057803Y0083937D01*
X0057114Y0084161D01*
X0056399Y0084274D01*
X0053237Y0084274D01*
X0050075Y0084274D01*
X0049360Y0084161D01*
X0048671Y0083937D01*
X0048026Y0083608D01*
X0047440Y0083183D01*
X0046928Y0082671D01*
X0046503Y0082085D01*
X0046174Y0081440D01*
X0045950Y0080751D01*
X0045837Y0080036D01*
X0045837Y0079674D01*
X0045837Y0079312D01*
X0045950Y0078597D01*
X0045837Y0079674D02*
X0053237Y0079674D01*
X0050737Y0079674D01*
X0010737Y0119674D01*
X0010737Y0199674D01*
X0025737Y0214674D01*
X0130737Y0214674D01*
X0135737Y0209674D01*
X0135737Y0199674D01*
X0147331Y0199674D01*
X0148237Y0198769D01*
X0147856Y0199897D02*
X0148618Y0199897D01*
X0148618Y0201495D02*
X0147856Y0201495D01*
X0143715Y0201495D02*
X0141237Y0201495D01*
X0141237Y0199897D02*
X0143681Y0199897D01*
X0143681Y0198298D02*
X0141237Y0198298D01*
X0142812Y0196700D02*
X0143681Y0196700D01*
X0140095Y0203094D02*
X0152537Y0203094D01*
X0152537Y0204692D02*
X0138497Y0204692D01*
X0135937Y0204692D02*
X0135537Y0204692D01*
X0135537Y0203094D02*
X0135937Y0203094D01*
X0135937Y0201495D02*
X0135537Y0201495D01*
X0135537Y0199897D02*
X0135937Y0199897D01*
X0135737Y0199674D02*
X0125737Y0199674D01*
X0125537Y0199897D02*
X0125937Y0199897D01*
X0125937Y0201495D02*
X0125537Y0201495D01*
X0125537Y0203094D02*
X0125937Y0203094D01*
X0125937Y0204692D02*
X0125537Y0204692D01*
X0122977Y0204692D02*
X0118497Y0204692D01*
X0120095Y0203094D02*
X0121379Y0203094D01*
X0115937Y0203094D02*
X0115537Y0203094D01*
X0115537Y0204692D02*
X0115937Y0204692D01*
X0112977Y0204692D02*
X0108497Y0204692D01*
X0110095Y0203094D02*
X0111379Y0203094D01*
X0115537Y0201495D02*
X0115937Y0201495D01*
X0115937Y0199897D02*
X0115537Y0199897D01*
X0105937Y0199897D02*
X0105537Y0199897D01*
X0105537Y0201495D02*
X0105937Y0201495D01*
X0105937Y0203094D02*
X0105537Y0203094D01*
X0105537Y0204692D02*
X0105937Y0204692D01*
X0102977Y0204692D02*
X0099345Y0204692D01*
X0098964Y0206291D02*
X0144013Y0206291D01*
X0143081Y0207889D02*
X0097613Y0207889D01*
X0096014Y0209488D02*
X0143081Y0209488D01*
X0143081Y0211086D02*
X0094416Y0211086D01*
X0092817Y0212685D02*
X0143081Y0212685D01*
X0143439Y0214283D02*
X0012359Y0214283D01*
X0010506Y0212685D02*
X0023657Y0212685D01*
X0022058Y0211086D02*
X0009344Y0211086D01*
X0008725Y0209488D02*
X0020460Y0209488D01*
X0018861Y0207889D02*
X0008241Y0207889D01*
X0008137Y0206291D02*
X0017510Y0206291D01*
X0017137Y0204692D02*
X0008137Y0204692D01*
X0008137Y0203094D02*
X0017137Y0203094D01*
X0016439Y0201495D02*
X0008137Y0201495D01*
X0008137Y0199897D02*
X0015514Y0199897D01*
X0015137Y0198298D02*
X0008137Y0198298D01*
X0008137Y0196700D02*
X0015137Y0196700D01*
X0015137Y0195101D02*
X0008137Y0195101D01*
X0008137Y0193503D02*
X0015137Y0193503D01*
X0015137Y0191904D02*
X0008137Y0191904D01*
X0008137Y0190306D02*
X0015159Y0190306D01*
X0015822Y0188707D02*
X0008137Y0188707D01*
X0008137Y0187109D02*
X0017137Y0187109D01*
X0017137Y0185510D02*
X0008137Y0185510D01*
X0008137Y0183912D02*
X0017137Y0183912D01*
X0017137Y0182313D02*
X0008137Y0182313D01*
X0008137Y0180715D02*
X0017137Y0180715D01*
X0017137Y0179116D02*
X0008137Y0179116D01*
X0008137Y0177518D02*
X0017137Y0177518D01*
X0017137Y0175919D02*
X0008137Y0175919D01*
X0008137Y0174321D02*
X0017137Y0174321D01*
X0017137Y0172722D02*
X0008137Y0172722D01*
X0008137Y0171124D02*
X0017137Y0171124D01*
X0017137Y0169525D02*
X0008137Y0169525D01*
X0008137Y0167927D02*
X0017137Y0167927D01*
X0017137Y0166328D02*
X0008137Y0166328D01*
X0008137Y0164730D02*
X0017137Y0164730D01*
X0017137Y0163131D02*
X0008137Y0163131D01*
X0008137Y0161533D02*
X0017137Y0161533D01*
X0017137Y0159934D02*
X0008137Y0159934D01*
X0008137Y0158336D02*
X0017137Y0158336D01*
X0017137Y0156737D02*
X0008137Y0156737D01*
X0008137Y0155139D02*
X0017137Y0155139D01*
X0017137Y0153540D02*
X0008137Y0153540D01*
X0008137Y0151942D02*
X0017137Y0151942D01*
X0017137Y0150343D02*
X0008137Y0150343D01*
X0008137Y0148745D02*
X0017137Y0148745D01*
X0017137Y0147146D02*
X0008137Y0147146D01*
X0008137Y0145547D02*
X0017137Y0145547D01*
X0017137Y0143949D02*
X0008137Y0143949D01*
X0008137Y0142350D02*
X0017137Y0142350D01*
X0017137Y0140752D02*
X0008137Y0140752D01*
X0008137Y0139153D02*
X0017137Y0139153D01*
X0017137Y0137555D02*
X0008137Y0137555D01*
X0008137Y0135956D02*
X0017137Y0135956D01*
X0017137Y0134358D02*
X0008137Y0134358D01*
X0008137Y0132759D02*
X0017137Y0132759D01*
X0017137Y0131161D02*
X0008137Y0131161D01*
X0008137Y0129562D02*
X0017137Y0129562D01*
X0017137Y0127964D02*
X0008137Y0127964D01*
X0008137Y0126365D02*
X0017137Y0126365D01*
X0017137Y0124767D02*
X0008137Y0124767D01*
X0008137Y0123168D02*
X0017137Y0123168D01*
X0017137Y0121570D02*
X0008137Y0121570D01*
X0008137Y0119971D02*
X0017137Y0119971D01*
X0017379Y0118373D02*
X0008137Y0118373D01*
X0008137Y0116774D02*
X0018546Y0116774D01*
X0020144Y0115176D02*
X0008137Y0115176D01*
X0008137Y0113577D02*
X0021743Y0113577D01*
X0023341Y0111979D02*
X0008137Y0111979D01*
X0008137Y0110380D02*
X0024940Y0110380D01*
X0026538Y0108782D02*
X0008137Y0108782D01*
X0008137Y0107183D02*
X0028137Y0107183D01*
X0029735Y0105585D02*
X0008137Y0105585D01*
X0008137Y0103986D02*
X0031334Y0103986D01*
X0032932Y0102388D02*
X0008137Y0102388D01*
X0008137Y0100789D02*
X0034531Y0100789D01*
X0036129Y0099191D02*
X0008137Y0099191D01*
X0008137Y0097592D02*
X0037728Y0097592D01*
X0039326Y0095994D02*
X0008137Y0095994D01*
X0008137Y0094395D02*
X0040925Y0094395D01*
X0042523Y0092797D02*
X0008137Y0092797D01*
X0008137Y0091198D02*
X0044122Y0091198D01*
X0045237Y0089600D02*
X0008137Y0089600D01*
X0008137Y0088001D02*
X0045502Y0088001D01*
X0046355Y0086403D02*
X0008137Y0086403D01*
X0008137Y0084804D02*
X0048606Y0084804D01*
X0047472Y0083206D02*
X0008137Y0083206D01*
X0008137Y0081607D02*
X0046259Y0081607D01*
X0045837Y0080009D02*
X0008137Y0080009D01*
X0027264Y0049637D02*
X0045237Y0049637D01*
X0045455Y0051235D02*
X0029859Y0051235D01*
X0030937Y0052834D02*
X0046243Y0052834D01*
X0048336Y0054432D02*
X0031437Y0054432D01*
X0031685Y0056031D02*
X0046726Y0056031D01*
X0058138Y0054432D02*
X0063313Y0054432D01*
X0063287Y0052834D02*
X0060231Y0052834D01*
X0061019Y0051235D02*
X0063287Y0051235D01*
X0063287Y0050257D02*
X0063287Y0047941D01*
X0063410Y0047483D01*
X0063647Y0047073D01*
X0063982Y0046738D01*
X0064393Y0046501D01*
X0064850Y0046378D01*
X0067757Y0046378D01*
X0067757Y0050257D01*
X0063287Y0050257D01*
X0063287Y0049637D02*
X0061237Y0049637D01*
X0060988Y0048038D02*
X0063287Y0048038D01*
X0064620Y0046440D02*
X0060157Y0046440D01*
X0057958Y0044841D02*
X0089637Y0044841D01*
X0089637Y0043243D02*
X0059822Y0043243D01*
X0060849Y0041644D02*
X0089637Y0041644D01*
X0089637Y0040046D02*
X0061237Y0040046D01*
X0061157Y0038447D02*
X0073753Y0038447D01*
X0073804Y0038637D02*
X0073681Y0038179D01*
X0073681Y0035961D01*
X0077856Y0035961D01*
X0077856Y0039742D01*
X0075244Y0039742D01*
X0074786Y0039619D01*
X0074376Y0039382D01*
X0074041Y0039047D01*
X0073804Y0038637D01*
X0073681Y0036849D02*
X0060495Y0036849D01*
X0058945Y0035250D02*
X0077856Y0035250D01*
X0077856Y0035198D02*
X0073681Y0035198D01*
X0073681Y0032980D01*
X0073804Y0032523D01*
X0074041Y0032112D01*
X0074376Y0031777D01*
X0074786Y0031540D01*
X0075244Y0031417D01*
X0077856Y0031417D01*
X0077856Y0035198D01*
X0078618Y0035198D01*
X0078618Y0031417D01*
X0081230Y0031417D01*
X0081688Y0031540D01*
X0082098Y0031777D01*
X0082433Y0032112D01*
X0082670Y0032523D01*
X0082793Y0032980D01*
X0082793Y0035198D01*
X0078618Y0035198D01*
X0078618Y0035961D01*
X0077856Y0035961D01*
X0077856Y0035198D01*
X0078618Y0035250D02*
X0087687Y0035250D01*
X0087687Y0033652D02*
X0082793Y0033652D01*
X0082374Y0032053D02*
X0087687Y0032053D01*
X0087687Y0030455D02*
X0061237Y0030455D01*
X0061237Y0028856D02*
X0087687Y0028856D01*
X0087852Y0036849D02*
X0082793Y0036849D01*
X0082793Y0035961D02*
X0082793Y0038179D01*
X0082670Y0038637D01*
X0082433Y0039047D01*
X0082098Y0039382D01*
X0081688Y0039619D01*
X0081230Y0039742D01*
X0078618Y0039742D01*
X0078618Y0035961D01*
X0082793Y0035961D01*
X0082721Y0038447D02*
X0089637Y0038447D01*
X0089637Y0046440D02*
X0071854Y0046440D01*
X0072081Y0046501D02*
X0072492Y0046738D01*
X0072827Y0047073D01*
X0073064Y0047483D01*
X0073187Y0047941D01*
X0073187Y0050257D01*
X0068717Y0050257D01*
X0068717Y0046378D01*
X0071624Y0046378D01*
X0072081Y0046501D01*
X0073187Y0048038D02*
X0089637Y0048038D01*
X0089637Y0049637D02*
X0073187Y0049637D01*
X0073187Y0051235D02*
X0089637Y0051235D01*
X0089637Y0052834D02*
X0073187Y0052834D01*
X0073161Y0054432D02*
X0089637Y0054432D01*
X0088237Y0054674D02*
X0088237Y0074674D01*
X0083237Y0079674D01*
X0088237Y0084674D01*
X0088237Y0088611D01*
X0087174Y0089674D01*
X0088237Y0090737D01*
X0088237Y0109674D01*
X0083237Y0114674D01*
X0035737Y0114674D01*
X0025737Y0124674D01*
X0025737Y0169674D01*
X0030737Y0174674D01*
X0030737Y0194674D01*
X0030937Y0194474D02*
X0030937Y0186474D01*
X0031131Y0186474D01*
X0031908Y0186597D01*
X0032656Y0186840D01*
X0033358Y0187198D01*
X0033994Y0187660D01*
X0034551Y0188217D01*
X0035013Y0188853D01*
X0035371Y0189555D01*
X0035415Y0189690D01*
X0035990Y0188302D01*
X0037137Y0187154D01*
X0037137Y0176086D01*
X0027320Y0166269D01*
X0026307Y0165257D01*
X0025759Y0163933D01*
X0025759Y0135336D01*
X0026307Y0134013D01*
X0033698Y0126622D01*
X0035021Y0126074D01*
X0036453Y0126074D01*
X0046683Y0126074D01*
X0047491Y0125266D01*
X0048920Y0124674D01*
X0047491Y0124082D01*
X0046029Y0122620D01*
X0045237Y0120708D01*
X0045237Y0118640D01*
X0046029Y0116728D01*
X0047491Y0115266D01*
X0048920Y0114674D01*
X0047491Y0114082D01*
X0046029Y0112620D01*
X0045237Y0110708D01*
X0045237Y0108640D01*
X0046029Y0106728D01*
X0047491Y0105266D01*
X0048920Y0104674D01*
X0047491Y0104082D01*
X0046029Y0102620D01*
X0045237Y0100708D01*
X0045237Y0100265D01*
X0024337Y0121165D01*
X0024337Y0187154D01*
X0025484Y0188302D01*
X0026059Y0189690D01*
X0026103Y0189555D01*
X0026461Y0188853D01*
X0026923Y0188217D01*
X0027480Y0187660D01*
X0028116Y0187198D01*
X0028818Y0186840D01*
X0029566Y0186597D01*
X0030343Y0186474D01*
X0030537Y0186474D01*
X0030537Y0194474D01*
X0030937Y0194474D01*
X0030937Y0194874D02*
X0030537Y0194874D01*
X0030537Y0202874D01*
X0030343Y0202874D01*
X0029566Y0202751D01*
X0028818Y0202508D01*
X0028116Y0202150D01*
X0027480Y0201688D01*
X0026923Y0201131D01*
X0026461Y0200495D01*
X0026103Y0199793D01*
X0026059Y0199658D01*
X0025484Y0201046D01*
X0024337Y0202194D01*
X0024337Y0203183D01*
X0027228Y0206074D01*
X0049246Y0206074D01*
X0051846Y0203474D01*
X0049623Y0203474D01*
X0047565Y0202621D01*
X0045990Y0201046D01*
X0045737Y0200436D01*
X0045484Y0201046D01*
X0043909Y0202621D01*
X0041851Y0203474D01*
X0039623Y0203474D01*
X0037565Y0202621D01*
X0035990Y0201046D01*
X0035415Y0199658D01*
X0035371Y0199793D01*
X0035013Y0200495D01*
X0034551Y0201131D01*
X0033994Y0201688D01*
X0033358Y0202150D01*
X0032656Y0202508D01*
X0031908Y0202751D01*
X0031131Y0202874D01*
X0030937Y0202874D01*
X0030937Y0194874D01*
X0030937Y0195101D02*
X0030537Y0195101D01*
X0030537Y0193503D02*
X0030937Y0193503D01*
X0030937Y0191904D02*
X0030537Y0191904D01*
X0030537Y0190306D02*
X0030937Y0190306D01*
X0030937Y0188707D02*
X0030537Y0188707D01*
X0030537Y0187109D02*
X0030937Y0187109D01*
X0033183Y0187109D02*
X0037137Y0187109D01*
X0037137Y0185510D02*
X0024337Y0185510D01*
X0024337Y0183912D02*
X0037137Y0183912D01*
X0037137Y0182313D02*
X0024337Y0182313D01*
X0024337Y0180715D02*
X0037137Y0180715D01*
X0037137Y0179116D02*
X0024337Y0179116D01*
X0024337Y0177518D02*
X0037137Y0177518D01*
X0036970Y0175919D02*
X0024337Y0175919D01*
X0024337Y0174321D02*
X0035371Y0174321D01*
X0033773Y0172722D02*
X0024337Y0172722D01*
X0024337Y0171124D02*
X0032174Y0171124D01*
X0030576Y0169525D02*
X0024337Y0169525D01*
X0024337Y0167927D02*
X0028977Y0167927D01*
X0027379Y0166328D02*
X0024337Y0166328D01*
X0024337Y0164730D02*
X0026089Y0164730D01*
X0025759Y0163131D02*
X0024337Y0163131D01*
X0024337Y0161533D02*
X0025759Y0161533D01*
X0025759Y0159934D02*
X0024337Y0159934D01*
X0024337Y0158336D02*
X0025759Y0158336D01*
X0025759Y0156737D02*
X0024337Y0156737D01*
X0024337Y0155139D02*
X0025759Y0155139D01*
X0025759Y0153540D02*
X0024337Y0153540D01*
X0024337Y0151942D02*
X0025759Y0151942D01*
X0025759Y0150343D02*
X0024337Y0150343D01*
X0024337Y0148745D02*
X0025759Y0148745D01*
X0025759Y0147146D02*
X0024337Y0147146D01*
X0024337Y0145547D02*
X0025759Y0145547D01*
X0025759Y0143949D02*
X0024337Y0143949D01*
X0024337Y0142350D02*
X0025759Y0142350D01*
X0025759Y0140752D02*
X0024337Y0140752D01*
X0024337Y0139153D02*
X0025759Y0139153D01*
X0025759Y0137555D02*
X0024337Y0137555D01*
X0024337Y0135956D02*
X0025759Y0135956D01*
X0026164Y0134358D02*
X0024337Y0134358D01*
X0024337Y0132759D02*
X0027560Y0132759D01*
X0029159Y0131161D02*
X0024337Y0131161D01*
X0024337Y0129562D02*
X0030757Y0129562D01*
X0032356Y0127964D02*
X0024337Y0127964D01*
X0024337Y0126365D02*
X0034318Y0126365D01*
X0027129Y0118373D02*
X0045348Y0118373D01*
X0045237Y0119971D02*
X0025531Y0119971D01*
X0024337Y0121570D02*
X0045594Y0121570D01*
X0046577Y0123168D02*
X0024337Y0123168D01*
X0024337Y0124767D02*
X0048696Y0124767D01*
X0046010Y0116774D02*
X0028728Y0116774D01*
X0030326Y0115176D02*
X0047708Y0115176D01*
X0046986Y0113577D02*
X0031925Y0113577D01*
X0033523Y0111979D02*
X0045763Y0111979D01*
X0045237Y0110380D02*
X0035122Y0110380D01*
X0036720Y0108782D02*
X0045237Y0108782D01*
X0045840Y0107183D02*
X0038319Y0107183D01*
X0039917Y0105585D02*
X0047172Y0105585D01*
X0047395Y0103986D02*
X0041516Y0103986D01*
X0043115Y0102388D02*
X0045933Y0102388D01*
X0045270Y0100789D02*
X0044713Y0100789D01*
X0050737Y0089674D02*
X0053237Y0089674D01*
X0053237Y0084274D02*
X0053237Y0079674D01*
X0067174Y0079674D01*
X0068237Y0078611D01*
X0069300Y0079674D01*
X0083237Y0079674D01*
X0083533Y0084804D02*
X0084081Y0084804D01*
X0086694Y0084804D02*
X0087654Y0084804D01*
X0087654Y0086403D02*
X0086694Y0086403D01*
X0086694Y0088001D02*
X0087654Y0088001D01*
X0087654Y0089600D02*
X0105837Y0089600D01*
X0105837Y0089674D02*
X0105837Y0089312D01*
X0105950Y0088597D01*
X0106174Y0087908D01*
X0106503Y0087263D01*
X0106928Y0086677D01*
X0107440Y0086165D01*
X0108026Y0085740D01*
X0108671Y0085411D01*
X0109360Y0085187D01*
X0110075Y0085074D01*
X0113237Y0085074D01*
X0116399Y0085074D01*
X0117114Y0085187D01*
X0117803Y0085411D01*
X0118448Y0085740D01*
X0119034Y0086165D01*
X0119546Y0086677D01*
X0119971Y0087263D01*
X0120300Y0087908D01*
X0120524Y0088597D01*
X0120637Y0089312D01*
X0120637Y0089674D01*
X0120637Y0090036D01*
X0120524Y0090751D01*
X0120300Y0091440D01*
X0119971Y0092085D01*
X0119546Y0092671D01*
X0119034Y0093183D01*
X0118448Y0093608D01*
X0117803Y0093937D01*
X0117114Y0094161D01*
X0116399Y0094274D01*
X0113237Y0094274D01*
X0110075Y0094274D01*
X0109360Y0094161D01*
X0108671Y0093937D01*
X0108026Y0093608D01*
X0107440Y0093183D01*
X0106928Y0092671D01*
X0106503Y0092085D01*
X0106174Y0091440D01*
X0105950Y0090751D01*
X0105837Y0090036D01*
X0105837Y0089674D01*
X0113237Y0089674D01*
X0087174Y0089674D01*
X0086694Y0091198D02*
X0087654Y0091198D01*
X0087654Y0092797D02*
X0086694Y0092797D01*
X0086694Y0094395D02*
X0087654Y0094395D01*
X0090611Y0094395D02*
X0122137Y0094395D01*
X0122137Y0092797D02*
X0119420Y0092797D01*
X0120379Y0091198D02*
X0122137Y0091198D01*
X0122137Y0089600D02*
X0120637Y0089600D01*
X0120637Y0089674D02*
X0113237Y0089674D01*
X0113237Y0085074D01*
X0113237Y0089674D01*
X0113237Y0089674D01*
X0113237Y0089674D01*
X0105837Y0089674D01*
X0106095Y0091198D02*
X0091533Y0091198D01*
X0091533Y0092797D02*
X0107054Y0092797D01*
X0106763Y0095994D02*
X0059711Y0095994D01*
X0060803Y0097592D02*
X0105671Y0097592D01*
X0105237Y0099191D02*
X0061237Y0099191D01*
X0061204Y0100789D02*
X0105270Y0100789D01*
X0105933Y0102388D02*
X0060541Y0102388D01*
X0059079Y0103986D02*
X0107395Y0103986D01*
X0107172Y0105585D02*
X0059302Y0105585D01*
X0060634Y0107183D02*
X0105840Y0107183D01*
X0105237Y0108782D02*
X0061237Y0108782D01*
X0061237Y0110380D02*
X0105237Y0110380D01*
X0113237Y0094274D02*
X0113237Y0089674D01*
X0113237Y0089674D01*
X0113237Y0094274D01*
X0113237Y0092797D02*
X0113237Y0092797D01*
X0113237Y0091198D02*
X0113237Y0091198D01*
X0113237Y0089674D02*
X0120637Y0089674D01*
X0120330Y0088001D02*
X0122137Y0088001D01*
X0122137Y0086403D02*
X0119271Y0086403D01*
X0117240Y0084804D02*
X0122137Y0084804D01*
X0122137Y0083206D02*
X0119859Y0083206D01*
X0120865Y0081607D02*
X0122137Y0081607D01*
X0122137Y0080009D02*
X0121237Y0080009D01*
X0121142Y0078410D02*
X0122137Y0078410D01*
X0122137Y0076811D02*
X0120480Y0076811D01*
X0121185Y0075213D02*
X0118855Y0075213D01*
X0119450Y0073614D02*
X0119586Y0073614D01*
X0125737Y0064674D02*
X0108237Y0064674D01*
X0103237Y0059674D01*
X0099818Y0060826D02*
X0096837Y0060826D01*
X0096837Y0059228D02*
X0099637Y0059228D01*
X0099637Y0057629D02*
X0096837Y0057629D01*
X0096837Y0056031D02*
X0099637Y0056031D01*
X0099637Y0054432D02*
X0096837Y0054432D01*
X0096837Y0052834D02*
X0099637Y0052834D01*
X0099637Y0051235D02*
X0096837Y0051235D01*
X0096837Y0049637D02*
X0099637Y0049637D01*
X0099637Y0048038D02*
X0096837Y0048038D01*
X0096837Y0046440D02*
X0099637Y0046440D01*
X0099637Y0044841D02*
X0096837Y0044841D01*
X0096837Y0043243D02*
X0099933Y0043243D01*
X0101176Y0041644D02*
X0096837Y0041644D01*
X0096837Y0040046D02*
X0102774Y0040046D01*
X0104373Y0038447D02*
X0096837Y0038447D01*
X0098622Y0036849D02*
X0105971Y0036849D01*
X0107529Y0035250D02*
X0098787Y0035250D01*
X0098787Y0033652D02*
X0107061Y0033652D01*
X0105794Y0032053D02*
X0098787Y0032053D01*
X0098787Y0030455D02*
X0105237Y0030455D01*
X0105237Y0028856D02*
X0098787Y0028856D01*
X0098787Y0027258D02*
X0105809Y0027258D01*
X0107098Y0025659D02*
X0098787Y0025659D01*
X0098787Y0024061D02*
X0107470Y0024061D01*
X0105963Y0022462D02*
X0098606Y0022462D01*
X0093258Y0020864D02*
X0105301Y0020864D01*
X0105237Y0019265D02*
X0082095Y0019265D01*
X0074379Y0019265D02*
X0061237Y0019265D01*
X0061173Y0020864D02*
X0073108Y0020864D01*
X0073081Y0022462D02*
X0060511Y0022462D01*
X0059004Y0024061D02*
X0073081Y0024061D01*
X0073081Y0025659D02*
X0059376Y0025659D01*
X0060665Y0027258D02*
X0073350Y0027258D01*
X0074100Y0032053D02*
X0060680Y0032053D01*
X0059413Y0033652D02*
X0073681Y0033652D01*
X0077856Y0033652D02*
X0078618Y0033652D01*
X0078618Y0032053D02*
X0077856Y0032053D01*
X0077856Y0036849D02*
X0078618Y0036849D01*
X0078618Y0038447D02*
X0077856Y0038447D01*
X0084300Y0050737D02*
X0088237Y0054674D01*
X0089637Y0056031D02*
X0081999Y0056031D01*
X0083676Y0057629D02*
X0089637Y0057629D01*
X0089637Y0059228D02*
X0083787Y0059228D01*
X0083787Y0060826D02*
X0089637Y0060826D01*
X0089637Y0062425D02*
X0083787Y0062425D01*
X0083765Y0064023D02*
X0089637Y0064023D01*
X0089733Y0065622D02*
X0083787Y0065622D01*
X0083787Y0067220D02*
X0090692Y0067220D01*
X0092291Y0068819D02*
X0083787Y0068819D01*
X0083787Y0070417D02*
X0093889Y0070417D01*
X0095488Y0072016D02*
X0083552Y0072016D01*
X0078237Y0068414D02*
X0075914Y0070737D01*
X0068237Y0070737D01*
X0067174Y0069674D01*
X0062687Y0073614D02*
X0059450Y0073614D01*
X0057193Y0075213D02*
X0063493Y0075213D01*
X0063287Y0076811D02*
X0059643Y0076811D01*
X0060463Y0078410D02*
X0067757Y0078410D01*
X0068717Y0078410D02*
X0105332Y0078410D01*
X0105237Y0080009D02*
X0073187Y0080009D01*
X0073187Y0079091D02*
X0073187Y0081407D01*
X0073064Y0081865D01*
X0072827Y0082275D01*
X0072492Y0082610D01*
X0072081Y0082847D01*
X0071624Y0082970D01*
X0068717Y0082970D01*
X0068717Y0079091D01*
X0073187Y0079091D01*
X0073187Y0076811D02*
X0105994Y0076811D01*
X0107619Y0075213D02*
X0072981Y0075213D01*
X0077329Y0073614D02*
X0107024Y0073614D01*
X0104659Y0065622D02*
X0099276Y0065622D01*
X0097678Y0064023D02*
X0103061Y0064023D01*
X0100897Y0062425D02*
X0096837Y0062425D01*
X0084300Y0050737D02*
X0068237Y0050737D01*
X0067757Y0049637D02*
X0068717Y0049637D01*
X0068717Y0048038D02*
X0067757Y0048038D01*
X0067757Y0046440D02*
X0068717Y0046440D01*
X0073787Y0056031D02*
X0074475Y0056031D01*
X0070560Y0060934D02*
X0068237Y0058611D01*
X0062687Y0056031D02*
X0059748Y0056031D01*
X0053237Y0075074D02*
X0053237Y0079674D01*
X0053237Y0079674D01*
X0053237Y0075074D01*
X0053237Y0075213D02*
X0053237Y0075213D01*
X0053237Y0076811D02*
X0053237Y0076811D01*
X0053237Y0078410D02*
X0053237Y0078410D01*
X0053237Y0079674D02*
X0053237Y0079674D01*
X0045837Y0079674D01*
X0046831Y0076811D02*
X0030814Y0076811D01*
X0031437Y0075213D02*
X0049281Y0075213D01*
X0047024Y0073614D02*
X0031437Y0073614D01*
X0053237Y0079674D02*
X0053237Y0079674D01*
X0053237Y0084274D01*
X0053237Y0083206D02*
X0053237Y0083206D01*
X0053237Y0081607D02*
X0053237Y0081607D01*
X0053237Y0080009D02*
X0053237Y0080009D01*
X0053237Y0079674D02*
X0060637Y0079674D01*
X0053237Y0079674D01*
X0053237Y0079674D01*
X0059002Y0083206D02*
X0106615Y0083206D01*
X0105609Y0081607D02*
X0073133Y0081607D01*
X0075067Y0084804D02*
X0057868Y0084804D01*
X0060215Y0081607D02*
X0063341Y0081607D01*
X0063287Y0080009D02*
X0060637Y0080009D01*
X0067757Y0080009D02*
X0068717Y0080009D01*
X0068717Y0081607D02*
X0067757Y0081607D01*
X0074918Y0094395D02*
X0058227Y0094395D01*
X0060711Y0111979D02*
X0090841Y0111979D01*
X0089243Y0113577D02*
X0059488Y0113577D01*
X0058766Y0115176D02*
X0087644Y0115176D01*
X0086046Y0116774D02*
X0060464Y0116774D01*
X0061126Y0118373D02*
X0084447Y0118373D01*
X0082849Y0119971D02*
X0061237Y0119971D01*
X0060880Y0121570D02*
X0081250Y0121570D01*
X0079652Y0123168D02*
X0059897Y0123168D01*
X0057778Y0124767D02*
X0078053Y0124767D01*
X0076455Y0126365D02*
X0060082Y0126365D01*
X0060957Y0127964D02*
X0074856Y0127964D01*
X0073257Y0129562D02*
X0061237Y0129562D01*
X0061050Y0131161D02*
X0071659Y0131161D01*
X0070060Y0132759D02*
X0060306Y0132759D01*
X0058317Y0134358D02*
X0068462Y0134358D01*
X0066863Y0135956D02*
X0059673Y0135956D01*
X0060788Y0137555D02*
X0065265Y0137555D01*
X0063666Y0139153D02*
X0061237Y0139153D01*
X0061219Y0140752D02*
X0062068Y0140752D01*
X0063237Y0144674D02*
X0045737Y0144674D01*
X0055737Y0169674D02*
X0055737Y0204674D01*
X0050627Y0204692D02*
X0025847Y0204692D01*
X0024337Y0203094D02*
X0038705Y0203094D01*
X0036439Y0201495D02*
X0034187Y0201495D01*
X0035318Y0199897D02*
X0035514Y0199897D01*
X0030937Y0199897D02*
X0030537Y0199897D01*
X0030537Y0201495D02*
X0030937Y0201495D01*
X0030937Y0198298D02*
X0030537Y0198298D01*
X0030537Y0196700D02*
X0030937Y0196700D01*
X0027287Y0201495D02*
X0025035Y0201495D01*
X0025960Y0199897D02*
X0026156Y0199897D01*
X0026567Y0188707D02*
X0025652Y0188707D01*
X0024337Y0187109D02*
X0028291Y0187109D01*
X0034907Y0188707D02*
X0035822Y0188707D01*
X0045035Y0201495D02*
X0046439Y0201495D01*
X0048705Y0203094D02*
X0042769Y0203094D01*
X0060737Y0194674D02*
X0060737Y0183611D01*
X0060737Y0175737D02*
X0070540Y0175737D01*
X0070737Y0175934D01*
X0100944Y0203094D02*
X0101379Y0203094D01*
X0128497Y0204692D02*
X0132977Y0204692D01*
X0131379Y0203094D02*
X0130095Y0203094D01*
X0148237Y0210580D02*
X0154831Y0210580D01*
X0155737Y0209674D01*
X0155737Y0190934D01*
X0152902Y0189674D01*
X0152537Y0206291D02*
X0152461Y0206291D01*
X0153035Y0214283D02*
X0154036Y0214283D01*
X0150027Y0215882D02*
X0016369Y0215882D01*
X0093237Y0114674D02*
X0118237Y0114674D01*
X0120634Y0107183D02*
X0120637Y0107183D01*
X0119302Y0105585D02*
X0122137Y0105585D01*
X0122137Y0103986D02*
X0119079Y0103986D01*
X0120541Y0102388D02*
X0122137Y0102388D01*
X0122137Y0100789D02*
X0121204Y0100789D01*
X0121237Y0099191D02*
X0122137Y0099191D01*
X0122137Y0097592D02*
X0120803Y0097592D01*
X0119711Y0095994D02*
X0122137Y0095994D01*
X0113237Y0089674D02*
X0113237Y0089674D01*
X0113237Y0089600D02*
X0113237Y0089600D01*
X0113237Y0088001D02*
X0113237Y0088001D01*
X0113237Y0086403D02*
X0113237Y0086403D01*
X0109234Y0084804D02*
X0090267Y0084804D01*
X0091533Y0086403D02*
X0107203Y0086403D01*
X0106144Y0088001D02*
X0091533Y0088001D01*
X0083737Y0094395D02*
X0083682Y0094395D01*
X0117958Y0044841D02*
X0158258Y0044841D01*
X0158258Y0043243D02*
X0119822Y0043243D01*
X0120849Y0041644D02*
X0158258Y0041644D01*
X0158258Y0040046D02*
X0121237Y0040046D01*
X0121157Y0038447D02*
X0158258Y0038447D01*
X0158258Y0036849D02*
X0155898Y0036849D01*
X0155787Y0037115D02*
X0156214Y0036086D01*
X0156214Y0028767D01*
X0155787Y0027738D01*
X0155000Y0026950D01*
X0153971Y0026524D01*
X0152857Y0026524D01*
X0151828Y0026950D01*
X0151345Y0027433D01*
X0151298Y0027385D01*
X0151897Y0026786D01*
X0152068Y0026615D01*
X0152068Y0026615D01*
X0153102Y0025581D01*
X0153528Y0024552D01*
X0153528Y0023438D01*
X0153102Y0022409D01*
X0152314Y0021621D01*
X0152015Y0021497D01*
X0153102Y0020410D01*
X0153528Y0019381D01*
X0153528Y0018267D01*
X0153102Y0017238D01*
X0152314Y0016450D01*
X0151285Y0016024D01*
X0146034Y0016024D01*
X0145005Y0016450D01*
X0144920Y0016536D01*
X0144834Y0016450D01*
X0143805Y0016024D01*
X0140623Y0016024D01*
X0139594Y0016450D01*
X0139508Y0016536D01*
X0139423Y0016450D01*
X0138394Y0016024D01*
X0133143Y0016024D01*
X0132546Y0016271D01*
X0131948Y0016024D01*
X0130835Y0016024D01*
X0129805Y0016450D01*
X0129018Y0017238D01*
X0128592Y0018267D01*
X0128592Y0018698D01*
X0124881Y0022409D01*
X0124455Y0023438D01*
X0124455Y0025586D01*
X0124881Y0026615D01*
X0125631Y0027365D01*
X0125258Y0027738D01*
X0124832Y0028767D01*
X0124832Y0030233D01*
X0124403Y0030661D01*
X0123972Y0030661D01*
X0122943Y0031087D01*
X0122155Y0031875D01*
X0121729Y0032904D01*
X0121729Y0034018D01*
X0122155Y0035047D01*
X0122943Y0035835D01*
X0123972Y0036261D01*
X0126120Y0036261D01*
X0126597Y0036063D01*
X0127075Y0036261D01*
X0128189Y0036261D01*
X0129218Y0035835D01*
X0129303Y0035749D01*
X0129388Y0035835D01*
X0130418Y0036261D01*
X0133600Y0036261D01*
X0134629Y0035835D01*
X0134714Y0035749D01*
X0134800Y0035835D01*
X0135829Y0036261D01*
X0141080Y0036261D01*
X0142109Y0035835D01*
X0142194Y0035749D01*
X0142279Y0035835D01*
X0143309Y0036261D01*
X0146491Y0036261D01*
X0147520Y0035835D01*
X0148122Y0035232D01*
X0148725Y0035835D01*
X0149754Y0036261D01*
X0150686Y0036261D01*
X0151040Y0037115D01*
X0151828Y0037903D01*
X0152857Y0038329D01*
X0153971Y0038329D01*
X0155000Y0037903D01*
X0155787Y0037115D01*
X0156214Y0035250D02*
X0158258Y0035250D01*
X0158258Y0033652D02*
X0156214Y0033652D01*
X0156214Y0032053D02*
X0158258Y0032053D01*
X0158258Y0030455D02*
X0156214Y0030455D01*
X0156214Y0028856D02*
X0158258Y0028856D01*
X0158258Y0027258D02*
X0155307Y0027258D01*
X0153024Y0025659D02*
X0158258Y0025659D01*
X0158258Y0024061D02*
X0153528Y0024061D01*
X0153124Y0022462D02*
X0158258Y0022462D01*
X0158209Y0020864D02*
X0152648Y0020864D01*
X0153528Y0019265D02*
X0157899Y0019265D01*
X0157380Y0017667D02*
X0153279Y0017667D01*
X0151391Y0016068D02*
X0156401Y0016068D01*
X0151520Y0027258D02*
X0151425Y0027258D01*
X0148141Y0035250D02*
X0148104Y0035250D01*
X0150929Y0036849D02*
X0120495Y0036849D01*
X0118945Y0035250D02*
X0122359Y0035250D01*
X0121729Y0033652D02*
X0119413Y0033652D01*
X0120680Y0032053D02*
X0122081Y0032053D01*
X0121237Y0030455D02*
X0124610Y0030455D01*
X0124832Y0028856D02*
X0121237Y0028856D01*
X0120665Y0027258D02*
X0125523Y0027258D01*
X0124485Y0025659D02*
X0119376Y0025659D01*
X0119004Y0024061D02*
X0124455Y0024061D01*
X0124859Y0022462D02*
X0120511Y0022462D01*
X0121173Y0020864D02*
X0126426Y0020864D01*
X0128025Y0019265D02*
X0121237Y0019265D01*
X0120834Y0017667D02*
X0128840Y0017667D01*
X0130728Y0016068D02*
X0119785Y0016068D01*
X0106689Y0016068D02*
X0059785Y0016068D01*
X0060834Y0017667D02*
X0105640Y0017667D01*
X0108237Y0039674D02*
X0113237Y0039674D01*
X0132055Y0016068D02*
X0133037Y0016068D01*
X0138500Y0016068D02*
X0140517Y0016068D01*
X0143912Y0016068D02*
X0145928Y0016068D01*
X0137336Y0046440D02*
X0158258Y0046440D01*
X0158258Y0048038D02*
X0139192Y0048038D01*
X0140791Y0049637D02*
X0158258Y0049637D01*
X0158258Y0051235D02*
X0142389Y0051235D01*
X0143988Y0052834D02*
X0158258Y0052834D01*
X0158258Y0054432D02*
X0145586Y0054432D01*
X0147185Y0056031D02*
X0158258Y0056031D01*
X0158258Y0057629D02*
X0148784Y0057629D01*
X0150382Y0059228D02*
X0158258Y0059228D01*
X0158258Y0060826D02*
X0151981Y0060826D01*
X0153579Y0062425D02*
X0158258Y0062425D01*
X0158258Y0064023D02*
X0155178Y0064023D01*
X0156776Y0065622D02*
X0158258Y0065622D01*
D21*
X0113237Y0069674D02*
X0098237Y0069674D01*
X0084300Y0050737D02*
X0084300Y0041643D01*
X0078237Y0035580D01*
X0091072Y0023769D02*
X0093237Y0025934D01*
X0125737Y0189674D02*
X0130737Y0194674D01*
X0140737Y0194674D01*
X0145737Y0189674D01*
X0145422Y0189674D01*
X0110737Y0194674D02*
X0090737Y0194674D01*
M02*
