%
M48
M72
T01C0.0320
T02C0.0400
%
T01
X2574Y5517
X2574Y7417
X5324Y6967
X5324Y5967
X5324Y4967
X5324Y3967
X5324Y2967
X5324Y1967
X5324Y7967
X5324Y8967
X5324Y9967
X5324Y10967
X5324Y11967
X5324Y12967
X5324Y13967
X5324Y14967
X11324Y14967
X11324Y13967
X11324Y12967
X11324Y11967
X11324Y10967
X11324Y9967
X11324Y8967
X11324Y7967
X11324Y6967
X11324Y5967
X11324Y4967
X11324Y3967
X11324Y2967
X11324Y1967
T02
X11574Y18967
X11574Y19967
X12574Y19967
X12574Y18967
X13574Y18967
X13574Y19967
X10574Y19967
X10574Y18967
X9574Y18967
X9574Y19967
X6074Y19467
X5074Y19467
X4074Y19467
X3074Y19467
X2074Y19467
M30
