G75*
%MOIN*%
%OFA0B0*%
%FSLAX25Y25*%
%IPPOS*%
%LPD*%
%AMOC8*
5,1,8,0,0,1.08239X$1,22.5*
%
%ADD10C,0.00400*%
%ADD11R,0.05118X0.01969*%
%ADD12R,0.01969X0.05118*%
%ADD13C,0.00800*%
%ADD14C,0.00600*%
%ADD15R,0.01400X0.05600*%
%ADD16R,0.05600X0.01400*%
D10*
X0064992Y0040340D02*
X0064992Y0041520D01*
X0065582Y0042110D01*
X0066762Y0043375D02*
X0066762Y0045735D01*
X0064992Y0045145D02*
X0068532Y0045145D01*
X0066762Y0043375D01*
X0067942Y0042110D02*
X0068532Y0041520D01*
X0068532Y0040340D01*
X0067942Y0039750D01*
X0065582Y0039750D01*
X0064992Y0040340D01*
X0068937Y0034609D02*
X0068937Y0032249D01*
X0068937Y0033429D02*
X0072477Y0033429D01*
X0071297Y0032249D01*
X0071887Y0030984D02*
X0069527Y0030984D01*
X0068937Y0030394D01*
X0068937Y0028624D01*
X0072477Y0028624D01*
X0072477Y0030394D01*
X0071887Y0030984D01*
X0072477Y0027359D02*
X0072477Y0024999D01*
X0068937Y0024999D01*
X0068937Y0027359D01*
X0070707Y0026179D02*
X0070707Y0024999D01*
X0068937Y0023734D02*
X0068937Y0021374D01*
X0072477Y0021374D01*
X0070599Y0051032D02*
X0070599Y0058316D01*
X0065875Y0058316D02*
X0065875Y0051032D01*
X0065875Y0071032D02*
X0065875Y0078316D01*
X0065582Y0083372D02*
X0064992Y0083962D01*
X0064992Y0085142D01*
X0065582Y0085732D01*
X0065582Y0086997D02*
X0064992Y0087587D01*
X0064992Y0088767D01*
X0065582Y0089357D01*
X0066172Y0089357D01*
X0066762Y0088767D01*
X0066762Y0088177D01*
X0066762Y0088767D02*
X0067352Y0089357D01*
X0067942Y0089357D01*
X0068532Y0088767D01*
X0068532Y0087587D01*
X0067942Y0086997D01*
X0067942Y0085732D02*
X0068532Y0085142D01*
X0068532Y0083962D01*
X0067942Y0083372D01*
X0065582Y0083372D01*
X0070599Y0078316D02*
X0070599Y0071032D01*
X0079595Y0087312D02*
X0086879Y0087312D01*
X0086879Y0092036D02*
X0079595Y0092036D01*
X0080677Y0095287D02*
X0083037Y0095287D01*
X0081857Y0095287D02*
X0081857Y0098827D01*
X0083037Y0097647D01*
X0084302Y0098237D02*
X0084892Y0098827D01*
X0086072Y0098827D01*
X0086662Y0098237D01*
X0086662Y0095877D01*
X0086072Y0095287D01*
X0084892Y0095287D01*
X0084302Y0095877D01*
X0083437Y0065859D02*
X0083437Y0063499D01*
X0085797Y0065859D01*
X0086387Y0065859D01*
X0086977Y0065269D01*
X0086977Y0064089D01*
X0086387Y0063499D01*
X0086387Y0062234D02*
X0085207Y0062234D01*
X0084617Y0061644D01*
X0084617Y0059874D01*
X0083437Y0059874D02*
X0086977Y0059874D01*
X0086977Y0061644D01*
X0086387Y0062234D01*
X0084617Y0061054D02*
X0083437Y0062234D01*
X0100090Y0032546D02*
X0099500Y0031956D01*
X0099500Y0030776D01*
X0100090Y0030186D01*
X0099500Y0028921D02*
X0100680Y0027741D01*
X0100680Y0028331D02*
X0100680Y0026561D01*
X0099500Y0026561D02*
X0103040Y0026561D01*
X0103040Y0028331D01*
X0102450Y0028921D01*
X0101270Y0028921D01*
X0100680Y0028331D01*
X0102450Y0030186D02*
X0103040Y0030776D01*
X0103040Y0031956D01*
X0102450Y0032546D01*
X0101860Y0032546D01*
X0101270Y0031956D01*
X0100680Y0032546D01*
X0100090Y0032546D01*
X0101270Y0031956D02*
X0101270Y0031366D01*
X0073257Y0163811D02*
X0069717Y0163811D01*
X0070897Y0163811D02*
X0070897Y0165581D01*
X0071487Y0166171D01*
X0072667Y0166171D01*
X0073257Y0165581D01*
X0073257Y0163811D01*
X0070897Y0164991D02*
X0069717Y0166171D01*
X0069717Y0167436D02*
X0069717Y0169796D01*
X0069717Y0168616D02*
X0073257Y0168616D01*
X0072077Y0167436D01*
X0063020Y0168026D02*
X0062430Y0167436D01*
X0063020Y0168026D02*
X0063020Y0169206D01*
X0062430Y0169796D01*
X0061840Y0169796D01*
X0059480Y0167436D01*
X0059480Y0169796D01*
X0060070Y0166171D02*
X0059480Y0165581D01*
X0059480Y0164401D01*
X0060070Y0163811D01*
X0062430Y0163811D01*
X0063020Y0164401D01*
X0063020Y0165581D01*
X0062430Y0166171D01*
X0063099Y0176032D02*
X0063099Y0183316D01*
X0058375Y0183316D02*
X0058375Y0176032D01*
X0146802Y0181920D02*
X0149162Y0181920D01*
X0147392Y0183690D01*
X0147392Y0180150D01*
X0150427Y0180150D02*
X0151607Y0181330D01*
X0151017Y0181330D02*
X0152787Y0181330D01*
X0152787Y0180150D02*
X0152787Y0183690D01*
X0151017Y0183690D01*
X0150427Y0183100D01*
X0150427Y0181920D01*
X0151017Y0181330D01*
X0154748Y0197810D02*
X0154748Y0200170D01*
X0154748Y0201436D02*
X0154748Y0203796D01*
X0154748Y0205061D02*
X0154748Y0206831D01*
X0155338Y0207421D01*
X0157698Y0207421D01*
X0158288Y0206831D01*
X0158288Y0205061D01*
X0154748Y0205061D01*
X0156518Y0202616D02*
X0156518Y0201436D01*
X0158288Y0201436D02*
X0154748Y0201436D01*
X0154748Y0197810D02*
X0158288Y0197810D01*
X0158288Y0201436D02*
X0158288Y0203796D01*
X0157698Y0208686D02*
X0158288Y0209276D01*
X0158288Y0210456D01*
X0157698Y0211046D01*
X0157108Y0211046D01*
X0154748Y0208686D01*
X0154748Y0211046D01*
D11*
X0068237Y0077627D03*
X0068237Y0071721D03*
X0068237Y0057627D03*
X0068237Y0051721D03*
X0060737Y0176721D03*
X0060737Y0182627D03*
D12*
X0080284Y0089674D03*
X0086190Y0089674D03*
D13*
X0082174Y0039123D02*
X0074300Y0039123D01*
X0074300Y0033611D01*
X0075481Y0030855D02*
X0078237Y0030855D01*
X0075875Y0028493D01*
X0080599Y0028493D01*
X0078237Y0030855D01*
X0080993Y0030855D01*
X0082174Y0033611D02*
X0082174Y0039123D01*
X0082174Y0025737D02*
X0082174Y0020225D01*
X0074300Y0020225D01*
X0074300Y0025737D01*
X0144300Y0195225D02*
X0152174Y0195225D01*
X0152174Y0200737D01*
X0150993Y0203493D02*
X0148237Y0203493D01*
X0150599Y0205855D01*
X0145875Y0205855D01*
X0148237Y0203493D01*
X0145481Y0203493D01*
X0144300Y0200737D02*
X0144300Y0195225D01*
X0144300Y0208611D02*
X0144300Y0214123D01*
X0152174Y0214123D01*
X0152174Y0208611D01*
D14*
X0151962Y0192174D02*
X0146362Y0192174D01*
X0146362Y0187174D02*
X0151962Y0187174D01*
X0073237Y0182474D02*
X0073237Y0176874D01*
X0068237Y0176874D02*
X0068237Y0182474D01*
X0075737Y0067474D02*
X0075737Y0061874D01*
X0080737Y0061874D02*
X0080737Y0067474D01*
X0090737Y0032474D02*
X0090737Y0026874D01*
X0095737Y0026874D02*
X0095737Y0032474D01*
D15*
X0145762Y0189674D03*
X0152562Y0189674D03*
D16*
X0070737Y0183074D03*
X0070737Y0176274D03*
X0078237Y0068074D03*
X0078237Y0061274D03*
X0093237Y0033074D03*
X0093237Y0026274D03*
M02*
